<svg width="24" height="24" viewBox="0 0 24 24" fill="none" xmlns="http://www.w3.org/2000/svg">
<circle cx="12" cy="12" r="12" fill="#747474"/>
<path d="M7.67756 17.3334C7.96824 17.3334 8.22101 17.2196 8.41058 17.0174L11.9872 13.4155L15.5891 17.0174C15.7787 17.207 16.0188 17.3334 16.3095 17.3334C16.8656 17.3334 17.3205 16.8657 17.3205 16.3097C17.3205 16.019 17.2194 15.7789 17.0172 15.5893L13.428 12L17.0299 8.38549C17.2447 8.17064 17.3332 7.95579 17.3332 7.67775C17.3332 7.10903 16.8782 6.66669 16.3221 6.66669C16.0567 6.66669 15.8419 6.75515 15.627 6.97L11.9872 10.5845L8.3853 6.98264C8.19573 6.78043 7.96824 6.69196 7.67756 6.69196C7.12148 6.69196 6.6665 7.12166 6.6665 7.69038C6.6665 7.96842 6.78025 8.20855 6.96982 8.39812L10.5591 12L6.96982 15.6019C6.78025 15.7789 6.6665 16.0316 6.6665 16.3097C6.6665 16.8657 7.12148 17.3334 7.67756 17.3334Z" fill="white"/>
</svg>
